<?xml version="1.0" encoding="UTF-8"?>
<svg id="Calque_1" data-name="Calque 1" xmlns="http://www.w3.org/2000/svg" version="1.1" viewBox="0 0 1000 783.9">
  <defs>
    <style>
      .cls-1 {
        fill: #838383;
      }

      .cls-1, .cls-2, .cls-3 {
        stroke-width: 0px;
      }

      .cls-2, .cls-3 {
        fill: #000;
      }

      .cls-3 {
        display: none;
      }

      .cls-4 {
        isolation: isolate;
      }
    </style>
  </defs>
  <g id="Calque_1-2" data-name="Calque 1">
    <path class="cls-3" d="M1101,810.9H-109V-116h1209.9v926.9h0ZM616.5,188.3c-.3,0-.5.3-.9.5-.9-1.4-1.7-2.6-2.6-4-6.2-8.5-14.4-13.7-24.9-14.2-15.6-.7-29.4,9.9-33,25.6-2.4,10-2.1,20.2.5,30.4,3.6,14.7,11.9,26.5,24,35.6,16.3,12.4,25.2,29,26.6,49.4,1.2,20.2-4.5,38.4-19.4,52-29.6,27.3-64.7,42.2-104.9,44.6-8.8.5-17.8,0-26.8,0s-18.7-1.9-27.5-5.4c-4.8-1.9-10-3.5-15.6-5.4.7.9.9,1.2,1,1.4.9.5,1.6,1,2.4,1.6,41.3,22.1,84.9,29,130.7,19,49.4-10.7,89.4-36.8,120.3-76.6,26.5-34.1,40.5-73,43.4-115.8,0-2.4,0-4.8-.3-7.3-10.9-45.3-34.8-82.3-73-109.4-30.1-21.3-63.8-31.5-100.6-30.9-6.6,0-6.7.5-9,6.7-1.4,4.1-3.3,8.1-5.2,12.1-.9,1.9-2.8,2.8-5,2.2-1.9-.3-3.1-1.6-3.6-3.5-.3-1.4-.7-2.9-1-4.3-7.8-26.6-24.6-44.4-51.5-52.2-4.1-1.2-8.5-2.2-13.1-1.4.3,2.1.5,3.8.9,5.5,2.1,10.5,1.9,21.1,0,31.5-3.8,22-14.2,40.1-31.1,54.8-23.5,20.2-24,56.7-1.2,77.6,9.3,8.6,20.6,13.1,33.4,12.3,8-.5,15.6-.7,22.8,2.8,2.9,1.4,4.8.3,6.4-2.6.5-1,1-2.1,1.2-3.1,3.3-13.3,9.7-25.4,15.6-37.7,1.9-4,3.8-8,6.4-11.6,11.2-16.3,26.6-26.3,46.3-28.2,30.3-2.9,58.6,16.1,68.1,45.1.3.9.5,1.9.7,2.8l-.5-.2v.3h0ZM361.5,226.9c-3.8-11.6-4.5-23.2-3.5-34.9,0-1.2,1.2-2.6,2.4-3.3,4-2.8,8.3-5.2,12.3-8,4.5-3.1,5.4-7.3,2.6-11.9-1.6-2.6-2.9-5-4.8-7.3-1.9-2.4-1.7-4.3,0-6.9,8.3-13.3,18.8-23.9,32.5-31.6,13.8-7.8,22.1-19.7,26.1-34.9,1.6-6.2,1.9-12.6.7-19-.7.9-1,1.6-1.2,2.4-4.5,19-15.7,32.5-33.7,40.3-55.8,24-89,80.1-82.6,140.7,3.8,36.3,20.1,66,47.7,89.7,1,.9,2.2,1.7,3.6,2.8,7.8-7.6,10.2-16.6,8.3-27-.7-4-1-8.1-.7-12.1.7-10.9,7.3-19,16.6-21.1,5.4-1.2,10.7-.9,15.9,1,2.9,1,5.7,2.8,8,5.2-2.8-.5-5.4-1.6-8-2.1-2.9-.5-5.9-.5-8.6-.3-10.7.7-19,8.1-20.2,17.8-.7,5.7,1,10.4,4.7,14.9,5.2,6.7,5,16.8-.2,22.5-4,4.3-8.6,7.8-14,10.2-7.8,3.6-15.4,3.3-23-.7-6.7-3.5-11.6-8.8-14.7-15.7-1.6-3.6-3.3-7.3-5.2-11.2-5.4,6.2-4.7,13.3-4.8,21.1-9-8.6-14.9-18-18.3-28.7-5.9-18.7-3.6-36.8,5.9-54.8-2.2.7-3.6,1-4.8,1.7-29.9,13-46.3,45.8-38.6,77.5,5.4,21.8,18.5,37.2,39.2,46.7,33.2,15,50.5,41,52,77.5,0,1.4.2,2.8.3,4.7,2.8-1.7,5.2-2.9,7.3-4.3,30.3-19.9,46-59.5,34.1-95.3-4.1-12.6.9-25.8,12.1-32.5.9-.5,1.9-.9,3.5-1.4-.5,1-.7,1.4-.9,1.9-2.8,5-2.2,9,1.2,12.4,3.3,3.3,7.8,3.6,12.6.9,4.5-2.6,8.1-6.1,10.4-10.7.9-1.7,1-4,1.6-6.1.9-3.3,3.5-5.2,6.4-4.8,3.1.3,5.2,2.9,4.8,6.2,0,1.6-.5,3.3-1.2,4.7-2.2,5.4-5.7,9.9-10.5,13.1-1,.7-1.9,1.6-3.1,2.4,6.6,8.3,14.9,13.8,25.1,14.9,18,1.9,35.6-.5,52.7-6.4,18-6.2,31.3-18,39.9-35.1,1.6-3.1,2.9-6.2,4.5-9.2,1-2.1,2.1-4.1,3.3-6.1,2.4-3.6,4.3-4.5,8.6-3.6,6.1,1.4,10,5.2,11.4,11.2.5,2.4.9,4.8,1.4,8.1,10.4-14,12.6-28.2,6.4-43.4-5.5-13.1-19.5-23.9-30.4-23.5-.2,1.2-.5,2.4-.7,3.8-1.6,8.6-5.5,16.3-11.9,22.5-5.9,5.5-14.2,6.2-21.1,1.9-6.2-4-9.3-11.6-7.4-18.7,2.1-7.8,8.8-13,16.9-13h4c6.6,0,11.6-2.9,15-8.5,2.4-3.6,2.9-7.4.3-11.4-.9-1.2-1.4-2.6-2.2-3.8-9-14.7-13-30.8-12.3-47.9v-6.1c-6.9-2.4-13.5-2.6-19.4,2.1-6.9,5.4-12.6,11.8-17.3,19-4.5,7.1-7.3,14.9-9.7,22.8-2.2,7.4-5.2,14.7-10,20.9-7.6,9.9-14.7,10.4-23.5,1.7-4-3.8-7.8-7.8-11.8-11.6-5.5-5-11.9-8.6-19.2-10.2-4.7-1-9.3-1.6-14-1.9-3.1,0-6.4-.2-9.7,1.9,1.6,1,2.9,1.6,3.8,2.6,3.1,2.9,6.4,5.5,8.8,9,3.6,5,4.5,11.1,3.8,17.3-1.6,13.5,3.6,23.2,15.9,29.4.7.3,1.2.9,2.6,1.7-21.3-3.5-38.6-12.6-52.9-27.5-1.4-1.6-2.1-2.9-1.6-5.2,1.2-5,2.2-10.2,3.1-15.2,1.4-7.1-.5-10-7.6-11.4-4.7-1-9.5-2.1-14.2-3.1l-.9.2h.1ZM709,588.6h0v-40.5c0-14.5-.3-12.1,9.3-22.6,5.4-5.9,14.9-6.7,19.9,3.1,2.2,4.7,2.9,9.5,2.9,14.7,0,27.1,0,54.3-.2,81.4,0,2.2,0,4.5.3,6.7.5,5.5,2.6,10.7,6.1,15.2,4.5,6.1,11.9,6.7,17.5,1.7l3.1-3.1c5.2-5.2,5.5-9.7,2.1-16.3s-2.9-6.9-3.6-10.4c-.7-3.8-.7-7.8-.7-11.6,0-25.2.2-50.3.3-75.6,0-11.8-4.5-21.1-14.4-27.7-4.1-2.8-8.5-5.4-12.8-8-4.7-2.8-6.6-2.4-10.2,1.6-3.8,3.8-7.3,8-11.1,11.6-5.2,5-11.2,5.2-16.4,0s-11.2-9.2-17.8-12.6c-6.2-3.3-7.8-2.9-12.6,2.2-3.5,3.8-6.9,7.8-10.5,11.6-5.5,5.9-11.8,5.9-17.3,0-.5-.5-.9-1-1.4-1.4-4.3-4.1-10.7-4.5-15.6-.7-1.4,1-2.6,2.4-3.8,3.6-4.3,4.7-4.8,10-1,15,3.1,4.1,4.3,8.6,4.3,13.7v85.8c0,8.3,2.4,15.7,8,22,2.6,2.8,5.7,4.5,9.5,4.3,6.1-.3,10-4.3,13-9.2,2.6-4.3,1.6-8.8-1.6-12.8-2.9-4-4.1-8.3-4-13.3v-74c0-3.1,0-6.2,2.4-8.6,3.6-3.8,7.1-7.8,10.9-11.2,4.5-4.1,10.5-3.6,14.9.5,3.1,2.9,4.7,6.6,5.2,10.7.3,2.4.3,4.8.3,7.3,0,13.5.3,27,.3,40.5s-.3,29.6-.5,44.3c0,5.4.7,10.7,3.1,15.6,2.4,5,7.1,7.3,12.4,6.6,4.7-.7,8.3-4.1,9.3-9.3.3-2.4.5-4.8.5-7.3v-43.9l-.3.3h.2,0ZM464.5,641.6c1,3.8,1.6,6.9,2.6,10,1.6,4,5.7,5.7,9.5,3.8,2.6-1.2,5.2-2.9,7.1-5,3.5-4,6.7-8.3,9.7-12.8,2.6-4.1,4.5-8.6,6.9-12.8,2.6-4.7,6.1-5.5,10.5-2.8,5.7,3.6,11.6,7.3,16.9,11.4,10.2,7.6,13,7.8,23.2.3,5.5-4,11.2-7.8,16.9-11.4,5.2-3.3,8.3-2.4,11.4,3.3,1.9,3.6,3.6,7.3,5.7,10.7,2.2,3.8,4.5,7.6,7.4,10.9,2.8,3.1,6.2,5.7,9.7,8,3.3,2.1,6.9,1,9.2-1.7,3.8-5,3.8-13.5-.3-18.5-6.2-7.6-11.4-15.7-15.7-24.6-13.1-26.5-26.5-52.7-39.8-79.2-3.5-6.9-2.8-9,4.3-12.4.5-.2.9-.3,1.4-.7,3.1-1.9,4.5-4.7,3.5-8.3-.5-2.2-1.4-4.3-2.2-6.4-2.1-5.2-4.5-6.4-10-4.8-3.3.9-6.4,2.2-9.5,3.6-2.8,1.2-5.2,1.2-8,.2-3.3-1.2-6.7-2.4-10.2-3.3-3.3-.9-5.7,0-6.9,2.9-1.4,3.1-2.4,6.4-3.1,9.7-.7,3.1.9,5.7,3.6,7.4,1,.5,2.1.9,3.1,1.4,3.6,2.1,4.7,4.8,3.1,8.6-.3,1-.9,2.1-1.4,3.1-12.3,24.4-24.6,48.8-36.8,73-5.5,11.1-11.1,22.1-19.5,31.3-1.4,1.4-1.9,3.6-2.6,5.2l.3-.2h0ZM413,601.7h.7v25.8c.2,9.3,3.8,17.5,10.5,23.9,3.5,3.3,6.6,3.5,10,.7,3.8-3.1,7.4-6.4,10.9-9.7,3.1-2.9,3.5-6.6.7-9.5-6.2-6.7-7.6-14.9-7.4-23.5.2-14.9.3-29.9.3-44.8s-2.8-14.7-8.5-20.1c-3.1-2.9-6.6-5.2-10-7.8-1.2-.9-2.6-1.6-3.6-2.6-2.4-2.2-2.6-5.4-.9-8s5-3.3,7.8-1.9c.9.3,1.6,1,2.4,1.6,3.3,2.1,6.1,1.9,9-.5,2.9-2.8,5.9-5.5,8.6-8.5,2.8-3.1,2.9-6.6.3-9.7-2.9-3.5-6.1-6.7-9.3-9.9s-6.4-2.8-9.7,0c-1,.9-1.9,1.7-2.8,2.8-9.5,9.7-19.2,19.5-28.7,29.2-.9.9-1.7,1.9-2.8,2.8-4.1,3.3-9.3,1.2-10.2-4-.2-1.6,0-3.3-.3-4.8-.9-8.8-3.1-16.9-9.7-23.3-3.5-3.3-6.7-3.5-10.4-.5-3.8,3.1-7.4,6.4-10.9,9.7-2.9,2.9-3.1,6.4-.7,9.7.9,1.2,1.9,2.2,2.8,3.3,2.2,2.8,3.6,5.9,3.6,9.3.2,9.7.3,19.5.3,29.2s-2.2,10.7-6.2,14.9c-3.6,3.8-3.6,6.7,0,10.7,4.8,5.4,6.6,11.8,6.4,18.8,0,7.4,0,14.9-.3,22.5-.2,10.2,4.3,18.2,12.1,24.4,3.6,2.8,6.6,2.8,10-.3,2.8-2.4,5.5-5,8.1-7.8,3.1-3.1,3.5-6.4.9-9.5-5-6.1-6.4-13-6.1-20.4.5-13.8.9-27.7,0-41.3-.7-8.3,3.1-14.7,9.3-19.9,2.8-2.2,5.5-2.6,8.5-.9,11.1,6.4,17.1,15.6,16.1,28.9-.5,7.1-.7,14.4-1,21.4v-.3h.2ZM861.3,640.3c1.7-.7,3.1-1,4.5-1.7,1.2-.7,2.4-1.6,3.6-2.4,6.7-4.5,13.5-9,20.2-13.5,6.1-4,8.5-3.3,11.9,3.1,1.9,3.5,3.5,6.9,5.4,10.4,1.9,3.3,4,6.7,6.2,9.9,2.9,4,6.6,7.1,11.1,9.3,2.4,1.4,5,1.6,7.4,0,3.8-2.4,6.4-15,3.8-18.8-.3-.5-.7-1-1.2-1.6-.9-1-1.6-2.1-2.6-2.9-5.7-5.7-9.9-12.3-13.5-19.5-10.7-21.3-21.3-42.7-32.2-64-5.4-10.4-10.7-20.7-16.3-30.9-4.7-8.6-11.8-15-20.6-19.5-4.8-2.4-7.4-1.4-9.7,3.5-1.2,2.8-2.2,5.7-2.9,8.8-.9,3.8.3,6.2,3.8,8.1,1.2.7,2.8,1.2,4,1.9,3.1,1.9,4.1,4.5,2.8,7.8-.3,1-1,2.1-1.6,3.1-14.2,28-28.4,55.8-42.5,83.9-3.6,7.3-7.3,14.5-13.8,19.7-.5.3-.9,1-1.2,1.4-1.7,1.9-2.4,4.1-1.6,6.7.9,2.4,1.2,5,1.9,7.6,1.7,6.1,5.7,7.6,11.2,4.5,4.3-2.4,8-5.7,10.7-9.7,2.2-3.3,4.5-6.7,6.4-10.4,1.9-3.3,3.5-6.6,5.2-9.9,2.9-5.4,5.5-6.1,10.7-2.9.7.3,1.4.9,2.1,1.4,6.9,4.7,13.7,9.3,20.6,13.8,1.9,1.2,4,2.1,5.9,2.9h.3,0ZM56.2,640.6c1,4,1.7,7.8,3.1,11.4,2.1,5,8.3,5.9,12.1,2.1.9-.9,1.7-1.9,2.4-2.9,6.2-8.3,12.4-16.6,18.7-24.9,4.1-5.5,6.9-6.2,12.6-2.4,6.9,4.5,13.8,9.2,20.7,13.8,5.2,3.5,6.6,3.5,11.9,0,6.7-4.5,13.7-8.8,20.2-13.7,7.1-5.2,11.2-3.5,14.9,4,2.6,5.4,5.5,10.5,8.8,15.7,3.1,4.8,7.1,8.8,12.3,11.6,4.5,2.2,9.2.5,10.7-4.1,1-3.3,1.7-6.6,2.4-9.9.5-2.2,0-4.1-2.2-5.4-5.2-2.8-8.5-7.4-11.1-12.6s-7.3-14.5-10.9-21.8c-11.9-23.9-23.9-47.5-35.8-71.4-3.5-6.9-2.8-8,4-11.1.9-.3,1.9-.7,2.6-1.4,2.4-1.9,3.8-4.3,2.9-7.3-1-3.5-2.2-6.7-4-9.9-2.1-3.5-5.2-4.3-8.8-2.6-2.2,1-4.3,2.4-6.2,3.8-8,6.2-13.7,14.4-18.2,23.2-14.2,27.8-28.2,55.5-42.2,83.5-4.8,9.5-9.7,18.8-17.6,26.1-.7.7-1.4,1.4-1.9,2.2-.7,1.2-1,2.6-1.6,4v-.2l.2.2h0ZM223.5,583.4h0v23.3c0,6.9-.2,14-.2,20.9s2.1,13.1,6.4,18.5c4.8,6.1,13.1,6.7,19.2,1.9,5.4-4.3,6.7-10.9,3.5-17.5-1.9-4-3.8-7.8-3.8-12.4,0-25.4,0-50.7-.2-76.1,0-3.8,1-6.9,4-9.5,2.1-1.7,4.1-3.8,5.9-5.9,6.2-7.3,19.7-6.7,22.8,6.4.9,3.8,1,7.8,1,11.6v81.8c0,7.3,1.9,13.8,6.1,19.7,2.2,3.3,5.2,5.4,9.2,5.7,5.9.7,10.5-1.6,13.7-6.4s2.9-10-.3-14.7c-2.9-4.1-3.8-8.5-3.6-13.3.2-6.4,0-12.6,0-19v-66.7c0-7.6-1.6-14.9-7.3-20.1-6.6-5.9-13.7-10.9-20.7-16.1-2.9-2.2-5.5-1.7-8.5.7-1,.9-2.1,2.1-3.1,3.1-2.9,3.1-5.7,6.2-8.8,9.2-6.2,6.1-14,5.7-19.7-.7-.9-1-1.6-2.1-2.4-2.9-2.8-2.9-6.4-3.1-9.3-.5-1.7,1.6-3.3,3.1-4.8,4.8-6.4,6.7-6.9,12.6-1.7,20.1,2.1,2.9,2.9,6.1,2.9,9.5v44.6h-.3Z"/>
    <path class="cls-2" d="M616.5,188.3c-.2-.9-.3-1.9-.7-2.8-9.5-29-37.7-48.1-68.1-45.1-19.7,1.9-35.1,11.9-46.3,28.2-2.4,3.6-4.5,7.6-6.4,11.6-5.9,12.3-12.3,24.4-15.6,37.7-.3,1-.7,2.2-1.2,3.1-1.6,2.9-3.5,4-6.4,2.6-7.4-3.6-15-3.3-22.8-2.8-12.8.7-23.9-3.6-33.4-12.3-22.8-20.9-22.3-57.4,1.2-77.6,16.9-14.7,27.3-32.9,31.1-54.8,1.9-10.4,2.1-21.1,0-31.5-.3-1.7-.5-3.5-.9-5.5,4.7-.9,9,0,13.1,1.4,27,7.8,43.7,25.6,51.5,52.2.3,1.4.7,2.8,1,4.3.5,1.9,1.7,3.1,3.6,3.5,2.1.3,4-.3,5-2.2,1.9-4,3.6-8,5.2-12.1,2.1-6.1,2.4-6.6,9-6.7,36.8-.5,70.5,9.7,100.6,30.9,38.2,27.1,62.1,64,73,109.4.5,2.2.5,4.8.3,7.3-2.9,42.9-16.9,81.8-43.4,115.8-30.9,39.8-70.9,65.9-120.3,76.6-45.8,10-89.4,3.1-130.7-19-.9-.5-1.7-1-2.4-1.6-.2,0-.3-.5-1-1.4,5.5,1.9,10.7,3.5,15.6,5.4,8.8,3.6,18,5.5,27.5,5.4,9,0,17.8.5,26.8,0,40.3-2.4,75.4-17.3,104.9-44.6,14.9-13.8,20.7-32,19.4-52-1.2-20.4-10.4-37-26.6-49.4-11.9-9.2-20.2-20.9-24-35.6-2.6-10-2.9-20.2-.5-30.4,3.6-15.6,17.5-26.3,33-25.6,10.7.5,18.7,5.7,24.9,14.2.9,1.2,1.7,2.6,2.6,4,.3,0,.5-.3.9-.5l.5.2v-.3h0ZM450.2,153.5c-9.3,0-16.6,7.8-16.6,17.5s7.3,17.3,16.8,17.3,16.4-7.8,16.4-17.1-7.6-17.6-16.6-17.6h0Z"/>
    <path class="cls-2" d="M361.5,226.9c4.7,1,9.3,2.1,14.2,3.1,6.9,1.4,9,4.3,7.6,11.4-1,5.2-1.9,10.2-3.1,15.2-.5,2.2,0,3.6,1.6,5.2,14.4,14.9,31.6,24.2,52.9,27.5-1.4-.9-1.9-1.4-2.6-1.7-12.3-6.4-17.5-15.9-15.9-29.4.7-6.2,0-12.1-3.8-17.3-2.4-3.5-5.7-6.1-8.8-9-1-1-2.4-1.6-3.8-2.6,3.3-2.1,6.6-2.1,9.7-1.9,4.7.2,9.3.9,14,1.9,7.3,1.6,13.7,5.2,19.2,10.2,4.1,3.8,7.8,7.8,11.8,11.6,8.8,8.6,15.9,8.1,23.5-1.7,4.8-6.2,7.8-13.5,10-20.9,2.4-8,5.2-15.7,9.7-22.8,4.7-7.3,10.4-13.7,17.3-19,6.1-4.7,12.4-4.3,19.4-2.1v6.1c-.7,17.1,3.3,33.2,12.3,47.9.7,1.2,1.4,2.6,2.2,3.8,2.6,4,2.1,7.6-.3,11.4-3.5,5.5-8.5,8.3-15,8.5h-4c-8,0-14.7,5.2-16.9,13-1.9,6.9,1.2,14.7,7.4,18.7,6.9,4.3,15.2,3.6,21.1-1.9,6.4-6.2,10.4-13.7,11.9-22.5.2-1.2.5-2.6.7-3.8,10.9-.2,25.1,10.5,30.4,23.5,6.4,15.2,4,29.4-6.4,43.4-.5-3.3-.9-5.9-1.4-8.1-1.4-6.1-5.4-9.9-11.4-11.2-4.3-1-6.2,0-8.6,3.6-1.2,1.9-2.2,4-3.3,6.1-1.6,3.1-2.9,6.2-4.5,9.2-8.6,17.1-22,28.9-39.9,35.1-17.1,6.1-34.8,8.3-52.7,6.4-10.4-1-18.5-6.6-25.1-14.9,1.2-.9,2.1-1.7,3.1-2.4,4.7-3.5,8.1-8,10.5-13.1.7-1.4,1-3.1,1.2-4.7.3-3.3-1.7-5.9-4.8-6.2-2.9-.3-5.5,1.6-6.4,4.8-.5,2.1-.7,4.1-1.6,6.1-2.4,4.5-6.1,8.1-10.4,10.7-4.7,2.8-9.2,2.4-12.6-.9-3.5-3.5-3.8-7.4-1.2-12.4.2-.3.3-.9.9-1.9-1.6.7-2.6.9-3.5,1.4-11.2,6.7-16.3,19.9-12.1,32.5,11.8,35.8-3.8,75.4-34.1,95.3-2.1,1.4-4.5,2.6-7.3,4.3,0-1.9-.3-3.3-.3-4.7-1.6-36.5-19-62.4-52-77.5-20.7-9.3-33.9-24.9-39.2-46.7-7.8-31.6,8.8-64.5,38.6-77.5,1.2-.5,2.6-.9,4.8-1.7-9.5,18.2-11.8,36.1-5.9,54.8,3.5,10.9,9.3,20.2,18.3,28.7.2-7.8-.5-14.9,4.8-21.1,1.7,4,3.5,7.6,5.2,11.2,3.1,6.9,8,12.3,14.7,15.7,7.6,4,15.2,4.3,23,.7,5.4-2.4,10-5.9,14-10.2,5.4-5.7,5.4-15.7.2-22.5-3.5-4.5-5.4-9.3-4.7-14.9,1.2-9.7,9.5-16.9,20.2-17.8,2.9-.2,5.9,0,8.6.3,2.6.5,5.2,1.6,8,2.1-2.2-2.4-5-4.1-8-5.2-5.2-1.7-10.5-2.1-15.9-1-9.3,2.1-15.7,10.2-16.6,21.1-.3,4,0,8.1.7,12.1,1.9,10.4-.5,19.2-8.3,27-1.2-1-2.4-1.7-3.6-2.8-27.7-23.7-43.9-53.4-47.7-89.7-6.4-60.5,26.8-116.7,82.6-140.7,18-7.8,29-21.3,33.7-40.3.2-.9.5-1.7,1.2-2.4,1.2,6.4.9,12.8-.7,19-3.8,15.2-12.3,27-26.1,34.9-13.5,7.8-24.2,18.3-32.5,31.6-1.6,2.6-1.7,4.5,0,6.9,1.7,2.2,3.3,4.8,4.8,7.3,2.8,4.7,1.9,8.8-2.6,11.9-4,2.8-8.3,5.2-12.3,8-1,.7-2.2,2.1-2.4,3.3-1,11.8-.3,23.3,3.5,34.9l.9-.2h-.1ZM483.2,310.2c9,0,16.3-7.1,16.1-15.9,0-8.6-7.6-16.3-16.1-16.3s-15.9,7.1-16.1,16.1c0,9,7.1,16.1,15.9,16.1h.2Z"/>
    <path class="cls-2" d="M709,588.6v43.9c0,2.4,0,4.8-.5,7.3-.9,5.2-4.5,8.6-9.3,9.3-5.4.7-10-1.6-12.4-6.6-2.4-4.8-3.1-10.2-3.1-15.6.2-14.7.5-29.6.5-44.3s0-27-.3-40.5c0-2.4,0-4.8-.3-7.3-.5-4.1-2.1-7.8-5.2-10.7-4.3-4.3-10.4-4.7-14.9-.5-3.8,3.5-7.3,7.4-10.9,11.2-2.2,2.4-2.4,5.5-2.4,8.6v74c0,4.8,1,9.3,4,13.3s4.1,8.3,1.6,12.8c-2.9,4.8-6.9,8.8-13,9.2-3.8.2-6.9-1.4-9.5-4.3-5.5-6.2-8-13.7-8-22v-85.8c0-5-1-9.5-4.3-13.7-3.8-5-3.1-10.4,1-15,1.2-1.4,2.4-2.6,3.8-3.6,4.8-3.8,11.1-3.5,15.6.7.5.5.9,1,1.4,1.4,5.5,5.7,11.8,5.9,17.3,0,3.6-3.8,7.1-7.6,10.5-11.6,4.7-5.2,6.4-5.5,12.6-2.2,6.6,3.5,12.6,7.4,17.8,12.6s11.2,5,16.4,0c3.8-3.8,7.4-7.8,11.1-11.6,3.6-3.8,5.7-4.1,10.2-1.6,4.3,2.6,8.6,5.2,12.8,8,10,6.4,14.5,15.7,14.4,27.7-.2,25.2-.3,50.3-.3,75.6s0,7.8.7,11.6c.7,3.6,1.9,7.3,3.6,10.4,3.5,6.6,3.1,11.1-2.1,16.3l-3.1,3.1c-5.7,4.8-13,4.1-17.5-1.7-3.5-4.5-5.4-9.5-6.1-15.2-.2-2.2-.3-4.5-.3-6.7,0-27.1,0-54.3.2-81.4,0-5.2-.5-10-2.9-14.7-5-10-14.5-9-19.9-3.1-9.7,10.5-9.3,8.1-9.3,22.6v40.5h0l.3-.3h-.2,0Z"/>
    <path class="cls-2" d="M464.5,641.6c.7-1.6,1.2-3.8,2.6-5.2,8.5-9.2,14-20.2,19.5-31.3,12.3-24.4,24.6-48.8,36.8-73,.5-1,1-2.1,1.4-3.1,1.6-3.8.5-6.6-3.1-8.6-1-.5-2.1-.9-3.1-1.4-2.8-1.7-4.3-4.1-3.6-7.4.7-3.3,1.7-6.6,3.1-9.7,1.2-2.8,3.6-3.8,6.9-2.9,3.5.9,6.9,2.1,10.2,3.3,2.8,1,5.4,1,8-.2,3.1-1.4,6.2-2.6,9.5-3.6,5.5-1.6,7.8-.2,10,4.8.9,2.1,1.6,4.3,2.2,6.4.9,3.6-.3,6.4-3.5,8.3-.3.2-.9.3-1.4.7-7.1,3.5-7.8,5.5-4.3,12.4,13.3,26.5,26.6,52.7,39.8,79.2,4.3,8.8,9.5,16.9,15.7,24.6,4.1,5,4.1,13.5.3,18.5-2.1,2.8-5.9,3.8-9.2,1.7-3.5-2.2-6.9-4.8-9.7-8-2.9-3.3-5.2-7.1-7.4-10.9-2.1-3.5-3.8-7.3-5.7-10.7-3.1-5.5-6.2-6.6-11.4-3.3-5.7,3.6-11.4,7.4-16.9,11.4-10.2,7.4-13,7.3-23.2-.3-5.5-4.1-11.2-7.8-16.9-11.4-4.5-2.9-8-1.9-10.5,2.8-2.4,4.1-4.3,8.8-6.9,12.8-2.9,4.5-6.1,8.8-9.7,12.8-1.9,2.1-4.5,3.8-7.1,5-4,1.9-8.1.3-9.5-3.8-1-2.9-1.7-6.2-2.6-10l-.3.2h0ZM541.6,554.1c-4-.3-6.2.9-7.6,3.5-5.4,10.4-10.7,20.7-16.1,31.1-1.7,3.5-1.2,5.9,1.7,8.3,5.4,4.3,10.7,8.3,16.3,12.3,2.4,1.9,5.2,1.7,7.8,0,5.5-4,10.9-8.1,16.3-12.4,2.8-2.2,3.5-4.7,1.9-7.8-5.4-10.5-10.7-21.1-16.4-31.5-.9-1.7-2.9-2.8-3.8-3.5h-.1Z"/>
    <path class="cls-2" d="M413,601.7c.3-7.1.5-14.4,1-21.4,1-13.3-5-22.3-16.1-28.9-3.1-1.7-5.9-1.4-8.5.9-6.2,5.2-10,11.6-9.3,19.9,1,13.8.7,27.7,0,41.3-.3,7.6,1,14.5,6.1,20.4,2.8,3.3,2.2,6.4-.9,9.5-2.6,2.8-5.4,5.2-8.1,7.8-3.5,3.1-6.4,3.1-10,.3-8-6.2-12.4-14-12.1-24.4,0-7.4,0-14.9.3-22.5,0-7.1-1.6-13.5-6.4-18.8-3.5-4-3.5-6.9,0-10.7,4-4.3,6.1-9.2,6.2-14.9,0-9.7,0-19.5-.3-29.2,0-3.5-1.4-6.6-3.6-9.3-.9-1-1.9-2.2-2.8-3.3-2.4-3.3-2.4-6.7.7-9.7,3.5-3.5,7.1-6.6,10.9-9.7,3.6-2.9,6.9-2.8,10.4.5,6.7,6.2,9,14.5,9.7,23.3,0,1.6,0,3.3.3,4.8.9,5.2,6.1,7.3,10.2,4,1-.9,1.9-1.7,2.8-2.8,9.5-9.7,19.2-19.5,28.7-29.2.9-.9,1.7-1.9,2.8-2.8,3.1-2.8,6.6-2.8,9.7,0,3.3,3.1,6.4,6.4,9.3,9.9,2.6,3.1,2.6,6.6-.3,9.7-2.8,2.9-5.7,5.9-8.6,8.5s-5.7,2.6-9,.5c-.9-.5-1.6-1.2-2.4-1.6-2.8-1.4-6.1-.5-7.8,1.9-1.7,2.6-1.6,5.7.9,8,1,1,2.4,1.7,3.6,2.6,3.3,2.6,6.9,4.8,10,7.8,5.7,5.4,8.5,12.3,8.5,20.1,0,14.9,0,29.9-.3,44.8,0,8.6,1,16.8,7.4,23.5,2.9,3.1,2.4,6.6-.7,9.5-3.5,3.5-7.1,6.6-10.9,9.7-3.5,2.8-6.6,2.4-10-.7-6.7-6.6-10.4-14.5-10.5-23.9-.2-8.6,0-17.3,0-25.8h-.7v.3h-.2Z"/>
    <path class="cls-2" d="M861.3,640.3c-1.9-1-4-1.7-5.9-2.9-6.9-4.5-13.8-9.2-20.6-13.8-.7-.5-1.4-.9-2.1-1.4-5-3.1-7.8-2.4-10.7,2.9-1.7,3.3-3.3,6.7-5.2,9.9-2.1,3.5-4.1,6.9-6.4,10.4-2.8,4-6.4,7.3-10.7,9.7-5.5,3.1-9.5,1.6-11.2-4.5-.7-2.4-1-5-1.9-7.6s-.2-4.8,1.6-6.7c.3-.5.9-1,1.2-1.4,6.6-5.2,10.2-12.4,13.8-19.7,14.2-28,28.4-55.8,42.5-83.9.5-1,1-2.1,1.6-3.1,1.2-3.5.3-6.1-2.8-7.8-1.2-.7-2.6-1.2-4-1.9-3.5-1.9-4.7-4.1-3.8-8.1.7-2.9,1.7-5.9,2.9-8.8,2.1-5,4.8-6.1,9.7-3.5,8.8,4.5,15.9,10.7,20.6,19.5,5.5,10.2,11.1,20.6,16.3,30.9,10.7,21.3,21.4,42.5,32.2,64,3.6,7.1,7.8,13.8,13.5,19.5s1.7,1.9,2.6,2.9c.3.5.9,1,1.2,1.6,2.4,3.8,0,16.4-3.8,18.8-2.4,1.6-4.8,1.4-7.4,0-4.3-2.2-8.1-5.4-11.1-9.3-2.2-3.1-4.3-6.4-6.2-9.9-1.9-3.3-3.6-6.9-5.4-10.4-3.5-6.4-5.9-7.1-11.9-3.1-6.7,4.5-13.5,9-20.2,13.5-1.2.9-2.4,1.7-3.6,2.4-1.2.7-2.8,1-4.5,1.7h-.3,0ZM862.5,611.2c2.6-1.4,5.2-2.4,7.3-4,4.1-3.1,8-6.7,11.9-10,3.5-2.8,3.8-4.3,1.7-8.3-5.2-10.2-10.5-20.6-15.7-30.8-1.4-2.6-2.9-4.7-6.2-4.7s-4.5,2.1-5.7,4.5c-5,9.5-10,19-14.9,28.5-.5,1-.9,2.1-1.4,3.1-1.2,2.6-.5,5,1.4,6.6,4.7,4.1,9.3,8.1,14.4,11.8,1.9,1.6,4.7,2.1,7.4,3.1l-.2.2h0Z"/>
    <path class="cls-2" d="M56.2,640.6c.5-1.4.9-2.8,1.6-4,.3-.9,1-1.6,1.9-2.2,8-7.3,12.8-16.6,17.6-26.1,14-27.8,28.2-55.7,42.2-83.5,4.5-9,10.2-16.9,18.2-23.2,1.9-1.6,4-2.9,6.2-3.8,3.6-1.6,6.9-.9,8.8,2.6,1.7,3.1,3.1,6.4,4,9.9.9,2.9-.5,5.4-2.9,7.3-.7.5-1.7.9-2.6,1.4-6.9,3.1-7.4,4.1-4,11.1,11.8,23.9,23.9,47.5,35.8,71.4,3.6,7.3,7.3,14.5,10.9,21.8s5.9,9.9,11.1,12.6c2.1,1.2,2.8,2.9,2.2,5.4-.9,3.3-1.4,6.7-2.4,9.9-1.6,4.7-6.2,6.4-10.7,4.1-5.2-2.6-9.3-6.6-12.3-11.6-3.1-5-6.2-10.2-8.8-15.7-3.5-7.6-7.8-9.2-14.9-4-6.6,4.7-13.5,9.2-20.2,13.7-5.2,3.5-6.7,3.5-11.9,0-6.9-4.7-13.8-9.2-20.7-13.8-5.7-3.8-8.5-3.3-12.6,2.4-6.2,8.3-12.4,16.6-18.7,24.9-.9,1-1.6,2.1-2.4,2.9-3.8,3.8-10,2.9-12.1-2.1-1.4-3.6-2.1-7.4-3.1-11.4v.2l-.2-.2h0ZM130.8,609.8c2.1-.7,4.3-1,6.1-2.2,5.2-3.5,10.2-6.9,15-10.7,2.4-1.9,3.1-5.2,1.7-8-5.2-10.2-10.2-20.6-15.7-30.8-2.9-5.5-9.3-5.5-12.3,0-5.4,10.2-10.5,20.4-15.7,30.8-1.4,2.6-1,5.2,1,7.1,4.5,4,9.2,7.6,14,11.2,1.6,1.2,3.8,1.6,5.9,2.2v.3h0Z"/>
    <path class="cls-2" d="M223.5,583.4v-44.3c0-3.6-.9-6.6-2.9-9.5-5.2-7.4-4.7-13.3,1.7-20.1,1.6-1.7,3.1-3.3,4.8-4.8,3.1-2.8,6.6-2.6,9.3.5.9.9,1.7,2.1,2.4,2.9,5.7,6.4,13.5,6.7,19.7.7,2.9-2.9,5.9-6.1,8.8-9.2,1-1,1.9-2.2,3.1-3.1,2.9-2.4,5.4-2.9,8.5-.7,7.1,5.2,14.2,10.2,20.7,16.1,5.9,5.2,7.3,12.4,7.3,20.1v85.8c0,4.8.7,9.2,3.6,13.3,3.5,4.7,3.5,9.9.3,14.7-3.1,5-7.8,7.3-13.7,6.4-4-.5-6.9-2.6-9.2-5.7-4.1-5.9-6.1-12.4-6.1-19.7v-81.8c0-3.8-.2-7.8-1-11.6-3.1-13.1-16.6-13.7-22.8-6.4-1.7,2.1-3.8,4-5.9,5.9-2.9,2.6-4,5.7-4,9.5,0,25.4.2,50.7.2,76.1s1.9,8.5,3.8,12.4c3.3,6.6,1.9,13.1-3.5,17.5-6.1,4.8-14.2,4.1-19.2-1.9-4.3-5.4-6.4-11.6-6.4-18.5s0-14,.2-20.9v-23.3h0v-.3h.3Z"/>
    <path class="cls-3" d="M450.2,153.5c9,0,16.4,8,16.6,17.6,0,9.3-7.4,17.1-16.4,17.1s-16.6-7.4-16.8-17.3c0-9.7,7.3-17.3,16.6-17.5h0Z"/>
    <path class="cls-3" d="M483.2,310.2c-9,0-16.1-7.1-15.9-16.1,0-9,7.1-16.1,16.1-16.1s16.1,7.6,16.1,16.3-7.3,15.9-16.1,15.9h-.2Z"/>
    <path class="cls-3" d="M541.6,554.1c.9.7,2.8,1.7,3.8,3.5,5.5,10.4,11.1,20.9,16.4,31.5,1.6,3.1,1,5.5-1.9,7.8-5.4,4.3-10.7,8.3-16.3,12.4-2.4,1.9-5.2,1.9-7.8,0-5.5-4-10.9-8.1-16.3-12.3-2.9-2.2-3.5-4.8-1.7-8.3,5.2-10.4,10.7-20.7,16.1-31.1,1.4-2.6,3.5-3.6,7.6-3.5h.1Z"/>
    <path class="cls-3" d="M862.5,611.2c-2.8-1.2-5.4-1.7-7.4-3.1-5-3.6-9.7-7.8-14.4-11.8-1.9-1.7-2.6-4-1.4-6.6.5-1,.9-2.1,1.4-3.1,5-9.5,10-19,14.9-28.5,1.2-2.4,2.8-4.5,5.7-4.5s4.8,2.1,6.2,4.7c5.2,10.2,10.5,20.4,15.7,30.8,2.1,4,1.6,5.5-1.7,8.3-4,3.3-7.8,6.7-11.9,10-2.1,1.6-4.7,2.6-7.3,4l.2-.2h0Z"/>
    <path class="cls-3" d="M130.8,609.8c-2.1-.7-4.3-1-5.9-2.2-4.8-3.6-9.5-7.3-14-11.2-2.2-1.9-2.4-4.5-1-7.1,5.2-10.2,10.2-20.6,15.7-30.8,2.9-5.5,9.3-5.7,12.3,0,5.4,10.2,10.5,20.4,15.7,30.8s.9,6.1-1.7,8c-4.8,3.8-9.9,7.3-15,10.7-1.7,1-3.8,1.4-6.1,2.2v-.3h0Z"/>
  </g>
  <g class="cls-4">
    <g class="cls-4">
      <path class="cls-1" d="M298.3,734.7h-17.2l-4.4,13h-10.3l18-50.7h10.7l18,50.7h-10.3l-4.4-13ZM295.6,726.2l-5.9-18.2-5.9,18.2h11.8Z"/>
      <path class="cls-1" d="M362.5,748.6c-7.8,0-14.2-2.5-19.1-7.5-4.9-5-7.3-11.2-7.3-18.8s2.5-13.7,7.5-18.8c5-5,11.3-7.5,18.9-7.5s10.9,1.5,15.1,4.6l-2.9,9c-3.8-2.7-7.9-4.1-12.2-4.1s-8.4,1.6-11.3,4.8c-3,3.2-4.5,7.2-4.5,11.9s1.5,8.9,4.5,12c3,3.1,6.7,4.7,11.3,4.7s8.6-1.4,12.6-4.1l2.9,8.9c-4.3,3.2-9.5,4.8-15.5,4.8Z"/>
      <path class="cls-1" d="M430.4,748.6c-7.8,0-14.2-2.5-19.1-7.5-4.9-5-7.3-11.2-7.3-18.8s2.5-13.7,7.5-18.8c5-5,11.3-7.5,18.9-7.5s10.9,1.5,15.1,4.6l-2.9,9c-3.8-2.7-7.9-4.1-12.2-4.1s-8.4,1.6-11.3,4.8c-3,3.2-4.5,7.2-4.5,11.9s1.5,8.9,4.5,12c3,3.1,6.7,4.7,11.3,4.7s8.6-1.4,12.6-4.1l2.9,8.9c-4.3,3.2-9.5,4.8-15.5,4.8Z"/>
      <path class="cls-1" d="M517.2,741.1c-4.9,5-11.2,7.5-19,7.5s-14-2.5-19-7.5c-4.9-5-7.4-11.3-7.4-18.8s2.5-13.7,7.4-18.8c4.9-5,11.3-7.5,18.9-7.5s14,2.5,18.9,7.5c4.9,5,7.4,11.3,7.4,18.8s-2.5,13.8-7.4,18.8ZM509.5,710.4c-3-3.2-6.7-4.8-11.3-4.8s-8.3,1.6-11.3,4.8c-3,3.2-4.5,7.2-4.5,11.9s1.5,8.9,4.5,12c3,3.1,6.7,4.7,11.3,4.7s8.3-1.6,11.3-4.7,4.5-7.1,4.5-12-1.5-8.8-4.5-11.9Z"/>
      <path class="cls-1" d="M588.6,743.2c-3.6,3.6-8.6,5.4-15.1,5.4s-11.5-1.8-15.1-5.4c-3.6-3.6-5.4-8.5-5.4-14.6v-31.6h10.2v31.6c0,3.2.9,5.8,2.7,7.7,1.8,1.9,4.3,2.8,7.5,2.8s5.7-.9,7.5-2.8c1.8-1.9,2.7-4.4,2.7-7.7v-31.6h10.2v31.6c0,6.1-1.8,10.9-5.4,14.6Z"/>
      <path class="cls-1" d="M657,747.7l-21.9-34.5v34.5h-10.1v-50.7h10.4l21.6,34.8v-34.8h10.1v50.7h-10.1Z"/>
      <path class="cls-1" d="M707,747.7v-41.5h-11.9v-9.2h33.9v9.2h-11.8v41.5h-10.2Z"/>
    </g>
  </g>
</svg>